<svg width="193" height="37" viewBox="0 0 193 37" fill="none" xmlns="http://www.w3.org/2000/svg">
<g clip-path="url(#clip0_642_3784)">
<path d="M45.1425 10.4795C45.5858 9.54341 45.9865 8.67543 46.5918 8.07975C47.1971 7.49259 47.8706 7.16071 48.6038 7.09263L53.0967 7.05859L53.0711 12.8877L49.3284 12.8707C49.0897 12.8707 48.8681 12.9473 48.672 13.109C48.4674 13.2706 48.3651 13.5344 48.3651 13.9259C48.3651 14.3769 48.6208 14.93 49.1494 15.5683C49.6695 16.2065 50.3089 16.9894 51.0676 17.8914C51.8264 18.8019 52.4487 19.8401 52.9347 20.9974C53.4206 22.1632 53.6679 23.4907 53.6679 24.9799C53.6167 27.4648 53.1393 29.2943 52.2186 30.4516C51.2978 31.6175 50.0787 32.1961 48.5526 32.1961H44.3496V26.2904L48.1434 26.3925C48.493 26.3925 48.8425 26.2989 49.1835 26.1032L49.5245 25.9075C49.9082 25.1501 49.4222 24.5715 49.4222 24.5715L48.5697 23.0653L44.9208 16.8532C44.9208 16.8532 43.8381 13.3132 45.1595 10.488L45.1425 10.4795Z" fill="#241C1D"/>
<path d="M103.831 10.4795C104.274 9.54341 104.675 8.67543 105.28 8.07975C105.886 7.49259 106.559 7.16071 107.292 7.09263L111.785 7.05859L111.76 12.8877L108.017 12.8707C107.778 12.8707 107.557 12.9473 107.36 13.109C107.164 13.2706 107.062 13.5344 107.054 13.9259C107.054 14.3769 107.318 14.93 107.838 15.5683C108.358 16.2065 108.997 16.9894 109.756 17.8914C110.515 18.8019 111.137 19.8401 111.623 20.9974C112.109 22.1632 112.356 23.4907 112.356 24.9799C112.314 27.4648 111.828 29.2943 110.907 30.4516C109.986 31.6175 108.767 32.1961 107.241 32.1961H103.038V26.2904L106.832 26.3925C107.181 26.3925 107.531 26.2989 107.872 26.1032L108.213 25.9075C108.588 25.1501 108.111 24.5715 108.111 24.5715L107.258 23.0653L103.609 16.8532C103.609 16.8532 102.535 13.3132 103.848 10.488L103.831 10.4795Z" fill="#241C1D"/>
<path d="M66.2085 23.4397C66.1829 24.4949 66.0721 25.5586 65.8589 26.6478C65.6117 27.7711 65.2707 28.7412 64.8359 29.5666C64.3926 30.4687 63.8214 31.192 63.0967 31.7536C62.3379 32.3323 61.4939 32.6301 60.5732 32.6301C59.3796 32.6301 58.3907 32.1876 57.6063 31.3026C56.8305 30.4516 56.2593 29.3028 55.8927 27.8562C55.5858 26.5798 55.4238 25.0906 55.4238 23.3716V7.05859H59.0898V23.9843C59.0812 24.7842 59.2432 25.4224 59.5672 25.8905C59.9167 26.384 60.3089 26.6478 60.7522 26.6819C61.2211 26.6478 61.6303 26.3925 61.9799 25.9245C62.3124 25.4735 62.4829 24.8097 62.5084 23.9503V7.05859H66.1914V23.4397H66.2085Z" fill="#241C1D"/>
<path d="M75.6115 29.0831C75.944 30.1894 76.302 31.0829 76.6686 31.7636C77.0352 32.4359 77.4956 32.7763 78.0497 32.7763C78.6039 32.7763 79.0898 32.3848 79.465 31.5934C79.8401 30.8106 80.0362 29.9085 80.0532 28.9044L80.3601 7.16222H76.6772L76.5748 20.5054L72.8151 7.78342C72.4059 6.87289 71.7836 6.42188 70.9481 6.42188C70.5133 6.42188 70.0614 6.67716 69.5925 7.17923C68.6547 8.67693 68.7059 11.817 68.7059 11.817L68.6377 32.2061H72.2951L72.2439 17.3653L75.62 29.0916L75.6626 29.0576" fill="#241C1D"/>
<path d="M169.715 29.0831C170.048 30.1894 170.406 31.0829 170.772 31.7636C171.139 32.4359 171.599 32.7763 172.154 32.7763C172.708 32.7763 173.194 32.3848 173.569 31.5934C173.944 30.8106 174.14 29.9085 174.157 28.9044L174.464 7.16222H170.781L170.687 20.5054L166.927 7.78342C166.518 6.87289 165.896 6.42188 165.06 6.42188C164.626 6.42188 164.174 6.67716 163.705 7.17923C162.767 8.67693 162.818 11.817 162.818 11.817L162.75 32.2061H166.399L166.348 17.3653L169.724 29.0916L169.766 29.0576" fill="#241C1D"/>
<path d="M91.9893 23.3719C91.9893 24.5292 92.1768 25.3121 92.569 25.7291C92.9526 26.146 93.4898 26.3503 94.1888 26.3503C94.3082 26.3503 94.6322 26.3247 95.1437 26.2652C95.6637 26.2056 96.0559 26.1801 96.3372 26.1801L96.2094 32.1964H92.8077C92.1086 32.1964 91.4863 32.0602 90.9406 31.7794C90.395 31.4986 89.9261 31.0476 89.5084 30.4179C89.0992 29.7882 88.7922 29.0053 88.5791 28.0777C88.366 27.1502 88.2637 26.0524 88.2637 24.776V7.00781H91.9381L91.9893 23.3719Z" fill="#241C1D"/>
<path d="M143.201 13.7733L143.244 15.1008C143.244 16.4538 143.116 17.6707 142.86 18.7514C142.605 19.8406 142.247 20.7682 141.769 21.5511C141.3 22.334 140.738 22.9297 140.09 23.3551C140.09 23.3551 138.726 24.0274 137.447 23.9678V18.0621C138.078 18.0621 138.393 17.8919 138.871 17.475C139.348 17.0495 139.604 16.3517 139.621 15.3901C139.621 14.5902 139.467 13.8839 139.16 13.2882C138.862 12.6925 138.47 12.3862 138.001 12.3862C137.558 12.3862 137.225 12.6755 137.021 13.2457C136.816 13.8158 136.705 14.4881 136.688 15.2539L136.603 32.1967H133.227L133.167 18.1217C133.167 18.1217 133.133 14.6923 133.346 12.4202C133.653 10.7183 134.199 9.33973 134.991 8.29304C135.776 7.24635 136.867 6.71875 138.248 6.71875C139.348 6.71875 140.294 7.10168 141.087 7.85904C141.88 8.62491 142.468 9.80776 142.86 11.4246L143.193 13.7818L143.201 13.7733Z" fill="#241C1D"/>
<path d="M155.077 13.7733L155.119 15.1008C155.119 16.4538 154.991 17.6707 154.736 18.7514C154.48 19.8406 154.122 20.7682 153.653 21.5511C153.184 22.334 152.621 22.9297 151.973 23.3551C151.973 23.3551 150.609 24.0274 149.339 23.9678V18.0621C149.97 18.0621 150.285 17.8919 150.763 17.475C151.24 17.0495 151.496 16.3517 151.513 15.3901C151.513 14.5902 151.36 13.8839 151.053 13.2882C150.754 12.6925 150.362 12.3862 149.885 12.3862C149.441 12.3862 149.109 12.6755 148.904 13.2457C148.7 13.8158 148.589 14.4881 148.572 15.2539L148.487 32.1967H145.111L145.051 18.1217C145.051 18.1217 145.017 14.6923 145.23 12.4202C145.537 10.7183 146.082 9.33973 146.875 8.29304C147.66 7.24635 148.742 6.71875 150.132 6.71875C151.232 6.71875 152.178 7.10168 152.971 7.85904C153.764 8.62491 154.352 9.80776 154.744 11.4246L155.077 13.7818V13.7733Z" fill="#241C1D"/>
<path d="M181.992 13.5615C181.378 14.1742 180.875 15.0081 180.5 16.0633C180.117 17.2291 179.912 18.4035 179.895 19.5778C179.895 20.7947 180.048 21.9435 180.355 23.0242C180.628 24.0539 181.037 24.8963 181.583 25.5601C182.171 26.2579 182.819 26.5983 183.527 26.6153C187.534 26.7089 187.286 22.3179 187.286 22.3179L183.45 22.3434V16.6335H191.174C191.191 17.0419 191.2 17.6802 191.2 18.5396V23.2199C191.2 23.2199 190.637 32.6486 183.228 32.6316C182.146 32.6316 181.148 32.2742 180.227 31.5424C179.324 30.785 178.548 29.7894 177.891 28.5725C177.261 27.2961 176.775 25.909 176.434 24.3858C176.135 22.9476 175.99 21.3904 175.99 19.714C175.99 19.6118 175.999 19.5182 176.007 19.4246C176.007 19.3395 176.016 19.2034 176.033 19.0332C176.041 18.863 176.058 18.6843 176.075 18.5226C176.093 18.3524 176.101 18.1822 176.118 18.0035C176.323 16.1144 176.689 14.4124 177.218 12.9062C177.721 11.4851 178.335 10.2938 179.059 9.3492C179.818 8.41313 180.594 7.74938 181.387 7.35794C181.387 7.35794 184.055 6.34529 186.246 7.16221C188.42 7.97063 189.904 10.6086 189.904 10.6086L187.269 14.9826C186.724 14.0721 186.212 13.4509 185.743 13.1105C185.3 12.8041 184.729 12.6765 184.03 12.6509C182.921 12.6084 182.052 13.4849 182.052 13.4849" fill="#241C1D"/>
<path d="M86.5669 7.05859H82.8242V32.1195H86.5669V7.05859Z" fill="#241C1D"/>
<path d="M130.976 7.05859H127.233V32.1195H130.976V7.05859Z" fill="#241C1D"/>
<path d="M160.491 7.05859H156.748V32.1195H160.491V7.05859Z" fill="#241C1D"/>
<path d="M121.155 7.05859V15.8831H118.282V7.05859H114.539V32.1195H118.282V21.8569H121.155V32.1195H124.889V7.05859H121.155Z" fill="#241C1D"/>
<path d="M8.43187 16.6444C4.03276 22.4395 4.09244 27.8857 6.87172 30.7024C9.33556 33.1957 14.4423 32.4128 19.6343 29.1621C19.6343 29.1621 20.2651 28.5835 20.2737 27.8176L20.1373 25.7583C20.1373 25.7583 20.0435 24.8903 19.2677 23.8776L14.4508 15.8615C14.4508 15.8615 13.854 15.2148 13.7176 14.1681L13.6409 11.5471V10.4834C13.6409 10.4834 13.5642 9.94733 14.1865 9.37718C23.0615 1.16536 32.8316 -2.16192 36.3867 1.44618C42.7125 7.85395 27.3839 24.6946 26.25 25.5285C26.25 25.5285 25.2525 26.422 24.8092 26.1157C24.8092 26.1157 24.4767 25.8689 25.2866 24.8818C25.2866 24.8818 29.8306 18.2868 30.794 15.2318C30.794 15.2318 33.0618 8.8666 30.8622 6.48389C28.9952 4.46711 22.8228 5.38615 16.8891 9.29208C16.1815 9.76011 16.1815 10.6111 16.1815 10.6111L16.3179 12.5768C16.4713 13.4108 16.7782 13.7256 16.7782 13.7256L21.6463 22.1502C22.243 23.0182 22.5585 24.1159 22.5585 24.1159V28.192C22.4221 29.1111 21.9276 29.3834 21.9276 29.3834C13.334 36.4719 5.10696 38.8887 1.7309 35.4678C-1.79862 31.8852 -0.0338601 24.6095 7.98002 15.7424C7.98002 15.7424 8.9434 14.7468 9.1139 15.3339C9.1139 15.3339 9.25031 15.5722 8.42335 16.6529L8.43187 16.6444Z" fill="#3B82F6"/>
</g>
<defs>
<clipPath id="clip0_642_3784">
<rect width="193" height="37" fill="white"/>
</clipPath>
</defs>
</svg>
